<svg xmlns="http://www.w3.org/2000/svg" viewBox="0 0 463.38 424.63"><g data-name="Layer 2"><g data-name="Layer 1"><rect width="97.06" height="98.1" x="287.79" y="291.11" fill="#c1e3f7" rx="13" transform="rotate(43.96 336.334 340.208)"/><rect width="114.32" height="114.32" x="279.15" y="283" fill="none" stroke="#008ef8" stroke-linecap="round" stroke-linejoin="round" rx="13" transform="rotate(43.96 336.334 340.208)"/><polygon fill="#ffcd52" points="319.79 423.47 301.58 423.47 301.58 245.26 320.31 245.26 319.79 423.47"/><ellipse cx="296.11" cy="389.9" fill="#fff" rx="19.68" ry="34.1"/><ellipse cx="296.11" cy="389.9" fill="none" stroke="#ff5061" stroke-linecap="round" stroke-linejoin="round" rx="19.68" ry="34.1"/><path fill="#ff5061" d="M313,404.89c2.8-6.46.69-10.42.69-15,0-9.63-3.22-20.54-9-27.38a52.49,52.49,0,0,0-2.46,15.13C302.26,387.28,307.25,398.05,313,404.89Z"/><ellipse cx="326.39" cy="377.72" fill="#fff" rx="19.68" ry="34.1"/><path fill="#ff5061" d="M278.07,391c0,3.81-1.54,6.85.57,12,9-7.21,15.83-19.32,15.83-31.78a55.47,55.47,0,0,0-1.9-13C283.52,365.32,278.07,378.5,278.07,391Z"/><ellipse cx="271.28" cy="369.22" fill="#fff" rx="19.68" ry="34.1"/><line x1="296.11" x2="296.11" y1="423.99" y2="372.86" fill="none" stroke="#ff5061" stroke-linecap="round" stroke-linejoin="round"/><line x1="296.11" x2="288.14" y1="392.89" y2="383.77" fill="none" stroke="#ff5061" stroke-linecap="round" stroke-linejoin="round"/><line x1="296.11" x2="284.63" y1="403.77" y2="390.64" fill="none" stroke="#ff5061" stroke-linecap="round" stroke-linejoin="round"/><line x1="296.11" x2="284.25" y1="414.98" y2="401.42" fill="none" stroke="#ff5061" stroke-linecap="round" stroke-linejoin="round"/><line x1="296.11" x2="305.78" y1="392.91" y2="381.86" fill="none" stroke="#ff5061" stroke-linecap="round" stroke-linejoin="round"/><line x1="296.11" x2="307.97" y1="403.79" y2="390.23" fill="none" stroke="#ff5061" stroke-linecap="round" stroke-linejoin="round"/><line x1="296.11" x2="307.97" y1="415" y2="401.44" fill="none" stroke="#ff5061" stroke-linecap="round" stroke-linejoin="round"/><ellipse cx="271.28" cy="369.22" fill="none" stroke="#008ef8" stroke-miterlimit="10" rx="19.68" ry="34.1"/><polyline fill="none" stroke="#008ef8" stroke-linecap="round" stroke-linejoin="round" points="271.28 352.18 271.28 403.31 271.28 424.13"/><line x1="271.28" x2="261.63" y1="372.21" y2="361.18" fill="none" stroke="#008ef8" stroke-linecap="round" stroke-linejoin="round"/><line x1="271.28" x2="259.42" y1="383.09" y2="369.52" fill="none" stroke="#008ef8" stroke-linecap="round" stroke-linejoin="round"/><line x1="271.28" x2="259.42" y1="394.3" y2="380.74" fill="none" stroke="#008ef8" stroke-linecap="round" stroke-linejoin="round"/><line x1="271.28" x2="280.94" y1="372.23" y2="361.18" fill="none" stroke="#008ef8" stroke-linecap="round" stroke-linejoin="round"/><line x1="271.28" x2="283.14" y1="383.11" y2="369.55" fill="none" stroke="#008ef8" stroke-linecap="round" stroke-linejoin="round"/><line x1="271.28" x2="283.14" y1="394.32" y2="380.76" fill="none" stroke="#008ef8" stroke-linecap="round" stroke-linejoin="round"/><ellipse cx="326.39" cy="377.72" fill="none" stroke="#439916" stroke-linecap="round" stroke-linejoin="round" rx="19.68" ry="34.1"/><polyline fill="none" stroke="#439916" stroke-linecap="round" stroke-linejoin="round" points="326.39 360.68 326.39 411.82 326.39 424.13"/><line x1="326.39" x2="316.74" y1="380.71" y2="369.68" fill="none" stroke="#439916" stroke-linecap="round" stroke-linejoin="round"/><line x1="326.39" x2="314.53" y1="391.59" y2="378.03" fill="none" stroke="#439916" stroke-linecap="round" stroke-linejoin="round"/><line x1="326.39" x2="314.53" y1="402.8" y2="389.24" fill="none" stroke="#439916" stroke-linecap="round" stroke-linejoin="round"/><line x1="326.39" x2="336.06" y1="380.73" y2="369.68" fill="none" stroke="#439916" stroke-linecap="round" stroke-linejoin="round"/><line x1="326.39" x2="338.25" y1="391.61" y2="378.05" fill="none" stroke="#439916" stroke-linecap="round" stroke-linejoin="round"/><line x1="326.39" x2="338.25" y1="402.82" y2="389.26" fill="none" stroke="#439916" stroke-linecap="round" stroke-linejoin="round"/><path fill="#f46534" d="M213.14,0a78.7,78.7,0,0,1,1.2,7.89c.31,2.63.49,5.27.65,7.92s.23,5.29.21,7.94a79,79,0,0,1-.35,8,78.74,78.74,0,0,1-1.21-7.89c-.3-2.63-.48-5.27-.64-7.92s-.23-5.29-.21-7.94S212.87,2.67,213.14,0Z"/><path fill="#f46534" d="M229.85 15c-2.62.55-5.25.91-7.88 1.2s-5.28.49-7.92.65-5.29.22-7.94.21a78.84 78.84 0 01-8-.36c2.62-.55 5.25-.91 7.88-1.2s5.28-.49 7.92-.65 5.29-.22 7.94-.2A76 76 0 01229.85 15zM234.07 19.44a38 38 0 011.07 5.3c.24 1.77.41 3.55.51 5.33s.11 3.56.06 5.35a36.47 36.47 0 01-.49 5.38 36.56 36.56 0 01-1.06-5.3c-.25-1.77-.42-3.55-.51-5.33s-.12-3.56-.07-5.35A36.35 36.35 0 01234.07 19.44z"/><path fill="#f46534" d="M245.33 29.54a38 38 0 01-5.3 1.07c-1.77.24-3.55.41-5.33.51s-3.56.11-5.35.07a36.37 36.37 0 01-5.38-.5 36.29 36.29 0 015.3-1.06c1.77-.24 3.54-.42 5.32-.51s3.57-.12 5.35-.06A38 38 0 01245.33 29.54zM15 221c.55 2.63.91 5.26 1.2 7.89s.49 5.28.65 7.92.22 5.29.21 7.94a78.84 78.84 0 01-.36 8c-.55-2.62-.91-5.25-1.2-7.88s-.49-5.28-.65-7.92-.22-5.29-.2-7.94A76.2 76.2 0 0115 221z"/><path fill="#f46534" d="M31.72 236a78.7 78.7 0 01-7.89 1.2c-2.63.3-5.27.49-7.92.65s-5.29.23-7.94.21a79 79 0 01-8-.35 78.74 78.74 0 017.89-1.21c2.63-.3 5.27-.48 7.92-.64s5.29-.23 7.94-.21S29.05 235.74 31.72 236zM35.94 240.44a36.56 36.56 0 011.06 5.3c.24 1.77.42 3.55.51 5.33s.12 3.56.07 5.35a36.35 36.35 0 01-.49 5.38A36.33 36.33 0 0136 256.5c-.24-1.77-.42-3.54-.51-5.32s-.11-3.57-.06-5.35A36.61 36.61 0 0135.94 240.44z"/><path fill="#f46534" d="M47.19 250.55a36.29 36.29 0 01-5.3 1.06c-1.77.24-3.54.42-5.32.51s-3.57.12-5.36.07a36.6 36.6 0 01-5.38-.49 36.6 36.6 0 015.3-1.07c1.77-.24 3.55-.41 5.33-.51s3.56-.11 5.35-.06A36.35 36.35 0 0147.19 250.55zM431.2 195.54c.55 2.62.91 5.25 1.2 7.89s.49 5.27.65 7.91.23 5.29.21 7.95a79 79 0 01-.35 8 79.18 79.18 0 01-1.21-7.89c-.3-2.64-.49-5.28-.64-7.92s-.23-5.29-.21-7.94A78.83 78.83 0 01431.2 195.54z"/><path fill="#f46534" d="M447.91 210.54a78.74 78.74 0 01-7.89 1.21c-2.63.3-5.27.48-7.91.65s-5.29.22-7.94.2a76.2 76.2 0 01-8-.35 76.33 76.33 0 017.89-1.2c2.64-.31 5.28-.49 7.92-.65s5.29-.22 7.94-.21S445.25 210.27 447.91 210.54zM452.13 215a36.29 36.29 0 011.06 5.3c.25 1.77.42 3.54.51 5.32s.12 3.57.07 5.35a36.61 36.61 0 01-.49 5.39 38 38 0 01-1.07-5.3c-.24-1.77-.41-3.55-.5-5.33s-.12-3.56-.07-5.35A36.35 36.35 0 01452.13 215z"/><path fill="#f46534" d="M463.38,225.08a37.57,37.57,0,0,1-5.29,1.07c-1.78.24-3.55.41-5.33.51s-3.56.11-5.35.06a36.35,36.35,0,0,1-5.38-.49,36.16,36.16,0,0,1,5.29-1.06c1.78-.25,3.55-.42,5.33-.51s3.57-.12,5.35-.07A36.35,36.35,0,0,1,463.38,225.08Z"/><rect width="204.48" height="358.46" x="57.51" y="65.01" fill="#c1e3f7"/><rect width="153.84" height="174.58" x="82.57" y="91.65" fill="#008ef8"/><polygon fill="#0234c1" points="246.92 81.65 72.57 81.65 57.51 65.01 261.99 65.01 246.92 81.65"/><rect width="153.84" height="119.88" x="82.57" y="276.95" fill="#008ef8"/><polygon fill="#0234c1" points="72.57 406.83 246.92 406.83 261.99 423.47 57.51 423.47 72.57 406.83"/><polygon fill="#0234c1" points="72.57 408.65 57 423.95 57 64.49 72.57 81.65 72.57 408.65"/><polygon fill="#0234c1" points="246.41 408.65 261.99 423.95 261.99 64.49 246.41 81.65 246.41 408.65"/><circle cx="242.06" cy="272.39" r="14.83" fill="#ffcd52"/><rect width="76.68" height="17.28" x="121.15" y="325.55" fill="#ffcd52"/><circle cx="159.49" cy="155.83" r="6.7" fill="#ffcd52"/><line x1="95.45" x2="130.01" y1="149.13" y2="107.85" fill="none" stroke="#fff" stroke-linecap="round" stroke-linejoin="round"/><line x1="95.45" x2="130.01" y1="334.19" y2="292.91" fill="none" stroke="#fff" stroke-linecap="round" stroke-linejoin="round"/><line x1="185.19" x2="219.75" y1="378.17" y2="336.89" fill="none" stroke="#fff" stroke-linecap="round" stroke-linejoin="round"/><line x1="185.19" x2="219.75" y1="256.98" y2="215.7" fill="none" stroke="#fff" stroke-linecap="round" stroke-linejoin="round"/><line x1="98.33" x2="163.13" y1="180.97" y2="107.85" fill="none" stroke="#fff" stroke-linecap="round" stroke-linejoin="round"/><line x1="152.79" x2="217.59" y1="251.86" y2="178.74" fill="none" stroke="#fff" stroke-linecap="round" stroke-linejoin="round"/><line x1="89.33" x2="108.05" y1="313.55" y2="291.46" fill="none" stroke="#fff" stroke-linecap="round" stroke-linejoin="round"/><line x1="205.02" x2="223.74" y1="379.62" y2="357.53" fill="none" stroke="#fff" stroke-linecap="round" stroke-linejoin="round"/><ellipse cx="56.78" cy="389.19" fill="#fff" rx="19.68" ry="34.1"/><ellipse cx="56.78" cy="389.19" fill="none" stroke="#ff5061" stroke-linecap="round" stroke-linejoin="round" rx="19.68" ry="34.1"/><path fill="#ff5061" d="M73.67,404.18c2.8-6.46.68-10.42.68-15,0-9.63-3.22-20.54-9-27.38a52.88,52.88,0,0,0-2.45,15.13C62.94,386.57,67.92,397.34,73.67,404.18Z"/><ellipse cx="87.07" cy="377.01" fill="#fff" rx="19.68" ry="34.1"/><path fill="#ff5061" d="M38.75,390.25c0,3.81-1.55,6.85.56,12,9-7.21,15.83-19.32,15.83-31.78a55.47,55.47,0,0,0-1.9-13C44.2,364.61,38.75,377.79,38.75,390.25Z"/><ellipse cx="31.95" cy="368.51" fill="#fff" rx="19.68" ry="34.1"/><line x1="56.78" x2="56.78" y1="423.29" y2="372.15" fill="none" stroke="#ff5061" stroke-linecap="round" stroke-linejoin="round"/><line x1="56.78" x2="48.82" y1="392.18" y2="383.07" fill="none" stroke="#ff5061" stroke-linecap="round" stroke-linejoin="round"/><line x1="56.78" x2="45.3" y1="403.06" y2="389.93" fill="none" stroke="#ff5061" stroke-linecap="round" stroke-linejoin="round"/><line x1="56.78" x2="44.92" y1="414.27" y2="400.71" fill="none" stroke="#ff5061" stroke-linecap="round" stroke-linejoin="round"/><line x1="56.78" x2="66.45" y1="392.2" y2="381.15" fill="none" stroke="#ff5061" stroke-linecap="round" stroke-linejoin="round"/><line x1="56.78" x2="68.65" y1="403.08" y2="389.52" fill="none" stroke="#ff5061" stroke-linecap="round" stroke-linejoin="round"/><line x1="56.78" x2="68.65" y1="414.29" y2="400.73" fill="none" stroke="#ff5061" stroke-linecap="round" stroke-linejoin="round"/><ellipse cx="31.95" cy="368.51" fill="none" stroke="#439916" stroke-linecap="round" stroke-linejoin="round" rx="19.68" ry="34.1"/><polyline fill="none" stroke="#439916" stroke-linecap="round" stroke-linejoin="round" points="31.95 351.47 31.95 402.61 31.95 423.42"/><line x1="31.95" x2="22.3" y1="371.5" y2="360.47" fill="none" stroke="#439916" stroke-linecap="round" stroke-linejoin="round"/><line x1="31.95" x2="20.09" y1="382.38" y2="368.81" fill="none" stroke="#439916" stroke-linecap="round" stroke-linejoin="round"/><line x1="31.95" x2="20.09" y1="393.59" y2="380.03" fill="none" stroke="#439916" stroke-linecap="round" stroke-linejoin="round"/><line x1="31.95" x2="41.62" y1="371.52" y2="360.47" fill="none" stroke="#439916" stroke-linecap="round" stroke-linejoin="round"/><line x1="31.95" x2="43.81" y1="382.4" y2="368.84" fill="none" stroke="#439916" stroke-linecap="round" stroke-linejoin="round"/><line x1="31.95" x2="43.81" y1="393.61" y2="380.05" fill="none" stroke="#439916" stroke-linecap="round" stroke-linejoin="round"/><ellipse cx="87.07" cy="377.01" fill="none" stroke="#ffcd52" stroke-linecap="round" stroke-linejoin="round" rx="19.68" ry="34.1"/><polyline fill="none" stroke="#ffcd52" stroke-linecap="round" stroke-linejoin="round" points="87.06 359.97 87.06 411.11 87.06 423.42"/><line x1="87.07" x2="77.42" y1="380" y2="368.97" fill="none" stroke="#ffcd52" stroke-linecap="round" stroke-linejoin="round"/><line x1="87.07" x2="75.21" y1="390.88" y2="377.32" fill="none" stroke="#ffcd52" stroke-linecap="round" stroke-linejoin="round"/><line x1="87.07" x2="75.21" y1="402.09" y2="388.53" fill="none" stroke="#ffcd52" stroke-linecap="round" stroke-linejoin="round"/><line x1="87.07" x2="96.73" y1="380.02" y2="368.97" fill="none" stroke="#ffcd52" stroke-linecap="round" stroke-linejoin="round"/><line x1="87.07" x2="98.93" y1="390.9" y2="377.34" fill="none" stroke="#ffcd52" stroke-linecap="round" stroke-linejoin="round"/><line x1="87.07" x2="98.93" y1="402.12" y2="388.55" fill="none" stroke="#ffcd52" stroke-linecap="round" stroke-linejoin="round"/><path fill="none" stroke="#008ef8" stroke-linecap="round" stroke-linejoin="round" d="M393.59,87,304.72,67.87a7.46,7.46,0,0,1-5.89-7.29V19.49A7.46,7.46,0,0,1,306.29,12h88.87a7.46,7.46,0,0,1,7.45,7.46V79.74A7.44,7.44,0,0,1,393.59,87Z"/><polygon fill="none" stroke="#008ef8" stroke-linecap="round" stroke-linejoin="round" points="307.15 68.4 310.64 78.15 326.35 72.53 307.15 68.4"/><polygon fill="#008ef8" points="325.7 72.76 326.35 72.53 307.15 68.4 308.39 71.85 325.7 72.76"/><polygon fill="#008ef8" points="350.77 60.97 347.92 60.97 344.13 24.09 353.69 22.04 350.77 60.97"/><circle cx="349.19" cy="66.16" r="2.24" fill="#008ef8"/><line x1="10.11" x2="399.93" y1="423.42" y2="423.42" fill="none" stroke="#545454" stroke-linecap="round" stroke-linejoin="round"/><polygon fill="#ff5061" points="348.57 115.34 272.79 115.34 234.9 180.97 272.79 246.59 348.57 246.59 386.46 180.97 348.57 115.34"/><line x1="282" x2="339.36" y1="142.58" y2="215.3" fill="none" stroke="#ffcd52" stroke-linecap="round" stroke-linejoin="round" stroke-width="8"/><line x1="339.36" x2="282" y1="142.58" y2="215.3" fill="none" stroke="#ffcd52" stroke-linecap="round" stroke-linejoin="round" stroke-width="8"/></g></g></svg>