<svg xmlns="http://www.w3.org/2000/svg" viewBox="0 0 466.94 327.55"><g data-name="Layer 2"><g data-name="Layer 1"><ellipse cx="321.02" cy="292.82" fill="none" stroke="#ff5061" stroke-linecap="round" stroke-linejoin="round" rx="19.68" ry="34.1"/><path fill="#ff5061" d="M337.9,307.81c2.8-6.46.68-10.42.68-15,0-9.63-3.22-20.54-9-27.38a52.88,52.88,0,0,0-2.45,15.13C327.17,290.2,332.16,301,337.9,307.81Z"/><ellipse cx="351.3" cy="280.64" fill="#fff" rx="19.68" ry="34.1"/><path fill="#ff5061" d="M303,293.89c0,3.8-1.55,6.84.56,12,9-7.21,15.84-19.31,15.84-31.78a55.56,55.56,0,0,0-1.91-13C308.43,268.24,303,281.42,303,293.89Z"/><ellipse cx="296.18" cy="272.14" fill="#fff" rx="19.68" ry="34.1"/><line x1="321.02" x2="321.02" y1="326.92" y2="275.78" fill="none" stroke="#ff5061" stroke-linecap="round" stroke-linejoin="round"/><line x1="321.02" x2="313.05" y1="295.81" y2="286.7" fill="none" stroke="#ff5061" stroke-linecap="round" stroke-linejoin="round"/><line x1="321.02" x2="309.53" y1="306.69" y2="293.56" fill="none" stroke="#ff5061" stroke-linecap="round" stroke-linejoin="round"/><line x1="321.02" x2="309.16" y1="317.9" y2="304.34" fill="none" stroke="#ff5061" stroke-linecap="round" stroke-linejoin="round"/><line x1="321.02" x2="330.68" y1="295.83" y2="284.78" fill="none" stroke="#ff5061" stroke-linecap="round" stroke-linejoin="round"/><line x1="321.02" x2="332.88" y1="306.71" y2="293.15" fill="none" stroke="#ff5061" stroke-linecap="round" stroke-linejoin="round"/><line x1="321.02" x2="332.88" y1="317.92" y2="304.36" fill="none" stroke="#ff5061" stroke-linecap="round" stroke-linejoin="round"/><ellipse cx="296.18" cy="272.14" fill="none" stroke="#439916" stroke-linecap="round" stroke-linejoin="round" rx="19.68" ry="34.1"/><polyline fill="none" stroke="#439916" stroke-linecap="round" stroke-linejoin="round" points="296.18 255.1 296.18 306.24 296.18 327.05"/><line x1="296.18" x2="286.53" y1="275.13" y2="264.1" fill="none" stroke="#439916" stroke-linecap="round" stroke-linejoin="round"/><line x1="296.18" x2="284.32" y1="286.01" y2="272.45" fill="none" stroke="#439916" stroke-linecap="round" stroke-linejoin="round"/><line x1="296.18" x2="284.32" y1="297.22" y2="283.66" fill="none" stroke="#439916" stroke-linecap="round" stroke-linejoin="round"/><line x1="296.18" x2="305.85" y1="275.15" y2="264.1" fill="none" stroke="#439916" stroke-linecap="round" stroke-linejoin="round"/><line x1="296.18" x2="308.04" y1="286.03" y2="272.47" fill="none" stroke="#439916" stroke-linecap="round" stroke-linejoin="round"/><line x1="296.18" x2="308.04" y1="297.24" y2="283.68" fill="none" stroke="#439916" stroke-linecap="round" stroke-linejoin="round"/><ellipse cx="351.3" cy="280.64" fill="none" stroke="#ffcd52" stroke-linecap="round" stroke-linejoin="round" rx="19.68" ry="34.1"/><polyline fill="none" stroke="#ffcd52" stroke-linecap="round" stroke-linejoin="round" points="351.3 263.6 351.3 314.74 351.3 327.05"/><line x1="351.3" x2="341.65" y1="283.63" y2="272.6" fill="none" stroke="#ffcd52" stroke-linecap="round" stroke-linejoin="round"/><line x1="351.3" x2="339.44" y1="294.51" y2="280.95" fill="none" stroke="#ffcd52" stroke-linecap="round" stroke-linejoin="round"/><line x1="351.3" x2="339.44" y1="305.72" y2="292.16" fill="none" stroke="#ffcd52" stroke-linecap="round" stroke-linejoin="round"/><line x1="351.3" x2="360.96" y1="283.65" y2="272.6" fill="none" stroke="#ffcd52" stroke-linecap="round" stroke-linejoin="round"/><line x1="351.3" x2="363.16" y1="294.53" y2="280.97" fill="none" stroke="#ffcd52" stroke-linecap="round" stroke-linejoin="round"/><line x1="351.3" x2="363.16" y1="305.75" y2="292.18" fill="none" stroke="#ffcd52" stroke-linecap="round" stroke-linejoin="round"/><polygon fill="#f4f4f4" points="311 178.79 137.93 178.79 137.93 195.03 149.91 195.03 154.17 219.07 157.4 237.3 161.71 261.58 165.66 283.86 169.11 303.32 172.86 324.47 172.86 324.48 173.16 326.16 275.77 326.16 281.37 294.56 281.37 294.55 282.66 287.3 288.68 253.34 289.13 250.78 289.13 250.78 294.72 219.25 294.72 219.24 295.79 213.21 299.02 195.03 311 195.03 311 178.79"/><rect width="97.06" height="98.1" x="342.46" y="32.45" fill="#c1e3f7" rx="13" transform="rotate(45 390.99 81.503)"/><rect width="114.32" height="114.32" x="333.83" y="24.34" fill="none" stroke="#008ef8" stroke-linecap="round" stroke-linejoin="round" rx="13" transform="rotate(45 390.99 81.503)"/><path fill="#439916" d="M299 194.88l0 .15A.77.77 0 00299 194.88zM149.88 194.88a.4.4 0 000 .15z"/><rect width="52.21" height="31.4" x="222.21" y="263.96" fill="#008ef8" transform="rotate(25.66 248.32 279.659)"/><polygon fill="#c1e3f7" points="231.58 254.2 248.31 279.66 278.64 276.81 231.58 254.2"/><circle cx="249.54" cy="277.1" r="1.68" fill="#008ef8"/><rect width="52.21" height="31.4" x="210.96" y="121.24" fill="#008ef8" transform="rotate(52.17 237.07 136.952)"/><polygon fill="#c1e3f7" points="233.46 106.69 237.06 136.94 265.48 147.93 233.46 106.69"/><circle cx="239.31" cy="135.2" r="1.68" fill="#489ee0"/><path fill="#c1e3f7" d="M225.22,212.84l8,56.24c3.44,24.09-16.73,22.31-40.82,25.74h0l-10.8-75.76Z"/><path fill="#008ef8" d="M172.9,277.25h18.28a0,0,0,0,1,0,0v19a0,0,0,0,1,0,0h0a18.28,18.28,0,0,1-18.28-18.28v-.68A0,0,0,0,1,172.9,277.25Z" transform="rotate(-8.12 181.926 286.618)"/><path fill="#008ef8" d="M225.22,212.84h0l-43.6,6.22a18.27,18.27,0,0,1,20.67,15.51l.1.67,25.51-3.64L246,229l-.09-.67A18.28,18.28,0,0,0,225.22,212.84Z"/><line x1="191.83" x2="223.49" y1="248.31" y2="243.27" fill="none" stroke="#489ee0" stroke-linecap="round" stroke-linejoin="round"/><line x1="192.91" x2="224.57" y1="254.81" y2="249.77" fill="none" stroke="#489ee0" stroke-linecap="round" stroke-linejoin="round"/><line x1="194.41" x2="226.07" y1="259.86" y2="254.81" fill="none" stroke="#489ee0" stroke-linecap="round" stroke-linejoin="round"/><line x1="195.47" x2="227.12" y1="264.63" y2="259.59" fill="none" stroke="#489ee0" stroke-linecap="round" stroke-linejoin="round"/><line x1="196.55" x2="228.21" y1="269.27" y2="264.22" fill="none" stroke="#489ee0" stroke-linecap="round" stroke-linejoin="round"/><line x1="197.17" x2="228.83" y1="274.46" y2="269.41" fill="none" stroke="#489ee0" stroke-linecap="round" stroke-linejoin="round"/><line x1="197.87" x2="229.53" y1="279.66" y2="274.62" fill="none" stroke="#489ee0" stroke-linecap="round" stroke-linejoin="round"/><polygon fill="none" stroke="#f46534" stroke-linecap="round" stroke-linejoin="round" stroke-width="2" points="299.04 194.88 295.79 213.21 294.72 219.24 294.72 219.25 289.13 250.78 289.13 250.78 288.68 253.34 282.66 287.3 281.37 294.55 281.37 294.56 275.77 326.16 173.16 326.16 172.86 324.48 172.86 324.47 169.11 303.32 165.66 283.86 161.71 261.58 157.4 237.3 154.17 219.07 149.88 194.88 299.04 194.88"/><line x1="164.41" x2="187.31" y1="194.54" y2="326.16" fill="none" stroke="#f46534" stroke-linecap="round" stroke-linejoin="round"/><line x1="178.5" x2="201.41" y1="194.54" y2="326.16" fill="none" stroke="#f46534" stroke-linecap="round" stroke-linejoin="round"/><line x1="192.98" x2="215.89" y1="194.54" y2="326.16" fill="none" stroke="#f46534" stroke-linecap="round" stroke-linejoin="round"/><line x1="206.95" x2="229.85" y1="194.54" y2="326.16" fill="none" stroke="#f46534" stroke-linecap="round" stroke-linejoin="round"/><line x1="221.04" x2="243.95" y1="194.54" y2="326.16" fill="none" stroke="#f46534" stroke-linecap="round" stroke-linejoin="round"/><line x1="235.52" x2="258.43" y1="194.54" y2="326.16" fill="none" stroke="#f46534" stroke-linecap="round" stroke-linejoin="round"/><line x1="249.87" x2="272.78" y1="194.54" y2="326.16" fill="none" stroke="#f46534" stroke-linecap="round" stroke-linejoin="round"/><polyline fill="none" stroke="#f46534" stroke-linecap="round" stroke-linejoin="round" points="281.37 294.56 281.37 294.55 280.59 290.08 276.67 267.59 272.65 244.44 268.71 221.81 264.95 200.19 264.03 194.88 263.96 194.54"/><polyline fill="none" stroke="#f46534" stroke-linecap="round" stroke-linejoin="round" points="278.44 194.54 278.5 194.88 280.44 205.99 284.37 228.62 288.4 251.76 288.68 253.34"/><polyline fill="none" stroke="#f46534" stroke-linecap="round" stroke-linejoin="round" points="290.49 194.88 294.08 215.53 294.72 219.24 294.72 219.25"/><polyline fill="none" stroke="#f46534" stroke-linecap="round" stroke-linejoin="round" points="188.83 194.88 180.51 206.11 180.51 206.12 169.1 221.51 157.4 237.3"/><polyline fill="none" stroke="#f46534" stroke-linecap="round" stroke-linejoin="round" points="211.13 194.88 207.8 199.38 196.48 214.65 184.75 230.48 173.34 245.87 173.34 245.88 161.71 261.58"/><polyline fill="none" stroke="#f46534" stroke-linecap="round" stroke-linejoin="round" points="231.59 194.88 223.1 206.34 211.68 221.74 200.37 237 188.65 252.84 177.23 268.24 165.66 283.86"/><polyline fill="none" stroke="#f46534" stroke-linecap="round" stroke-linejoin="round" points="249.46 194.88 238.22 210.05 226.5 225.88 215.08 241.28 203.78 256.54 192.04 272.37 180.63 287.77 169.11 303.32"/><polyline fill="none" stroke="#f46534" stroke-linecap="round" stroke-linejoin="round" points="268.88 194.88 264.95 200.19 253.54 215.6 241.91 231.28 230.19 247.11 218.78 262.51 207.47 277.77 195.74 293.61 184.32 309 172.86 324.47 172.86 324.48"/><polyline fill="none" stroke="#f46534" stroke-linecap="round" stroke-linejoin="round" points="191.39 326.16 199.5 315.22 211.23 299.39 222.54 284.13 233.95 268.73 245.68 252.9 257.3 237.21 268.71 221.81 280.44 205.99 288.67 194.88"/><polyline fill="none" stroke="#f46534" stroke-linecap="round" stroke-linejoin="round" points="295.79 213.21 294.08 215.53 284.37 228.62 272.65 244.44 261.24 259.85 249.62 275.54 237.89 291.36 237.89 291.36 226.48 306.76 215.17 322.03 212.1 326.16"/><polyline fill="none" stroke="#f46534" stroke-linecap="round" stroke-linejoin="round" points="289.13 250.78 289.13 250.78 288.4 251.76 276.67 267.59 265.27 282.99 253.65 298.68 241.92 314.5 241.92 314.51 233.28 326.16"/><polyline fill="none" stroke="#f46534" stroke-linecap="round" stroke-linejoin="round" points="253.86 326.16 257.56 321.17 269.18 305.49 280.59 290.08 282.66 287.3"/><path fill="#439916" d="M379.65,168.47a49.56,49.56,0,0,1-6.1,1.05c-2.05.24-4.09.41-6.14.51s-4.1.11-6.15.06a48,48,0,0,1-6.18-.5,47.93,47.93,0,0,1,6.11-1.06q3.06-.36,6.13-.5c2.05-.1,4.1-.11,6.15-.06A47.66,47.66,0,0,1,379.65,168.47Z"/><path fill="#439916" d="M367.93 181.31a47.78 47.78 0 01-1.06-6.1c-.24-2.05-.41-4.09-.5-6.14s-.11-4.09-.06-6.15a46.23 46.23 0 01.5-6.18 49.75 49.75 0 011.06 6.11c.23 2 .41 4.08.5 6.13s.11 4.1.06 6.15A49.49 49.49 0 01367.93 181.31zM342.64 173.39a37.67 37.67 0 011.1 5.29c.25 1.77.43 3.54.54 5.32s.14 3.57.1 5.35a36.54 36.54 0 01-.46 5.39 36.58 36.58 0 01-1.1-5.29c-.25-1.77-.44-3.55-.54-5.33s-.13-3.56-.09-5.35A37.67 37.67 0 01342.64 173.39z"/><path fill="#439916" d="M354 183.42a36.43 36.43 0 01-5.3 1.1c-1.77.25-3.54.44-5.32.54s-3.56.14-5.35.1a36.29 36.29 0 01-5.38-.46 36.3 36.3 0 015.29-1.1c1.77-.25 3.54-.43 5.32-.54s3.56-.13 5.35-.09A37.93 37.93 0 01354 183.42zM127.77 206.87a47.93 47.93 0 01-6.11 1.06q-3.06.36-6.13.5c-2 .1-4.1.11-6.15.06a46 46 0 01-6.18-.5 47.78 47.78 0 016.1-1.06c2-.24 4.09-.41 6.14-.5s4.1-.11 6.15-.06A49.8 49.8 0 01127.77 206.87z"/><path fill="#439916" d="M116 219.72a49.72 49.72 0 01-1.05-6.11q-.36-3.06-.51-6.13c-.1-2-.11-4.1-.06-6.15a47.66 47.66 0 01.5-6.18 47.78 47.78 0 011.06 6.1q.36 3.06.5 6.14c.1 2 .11 4.09.06 6.15A48 48 0 01116 219.72zM90.76 211.79a36.54 36.54 0 011.09 5.29c.26 1.77.44 3.55.54 5.33s.14 3.56.1 5.35a36.41 36.41 0 01-.46 5.38 36.27 36.27 0 01-1.09-5.29c-.26-1.77-.44-3.54-.54-5.32s-.14-3.57-.1-5.36A36.52 36.52 0 0190.76 211.79z"/><path fill="#439916" d="M102.07 221.83a36.27 36.27 0 01-5.29 1.09c-1.77.26-3.55.44-5.32.54s-3.57.14-5.35.1a36.54 36.54 0 01-5.39-.46A36.54 36.54 0 0186 222c1.77-.25 3.55-.44 5.33-.54s3.56-.14 5.35-.1A36.41 36.41 0 01102.07 221.83zM160.7 11.72a47.93 47.93 0 01-6.11 1.06c-2 .24-4.09.41-6.13.5s-4.1.12-6.16.07a49.49 49.49 0 01-6.17-.5 47.47 47.47 0 016.1-1.06c2-.24 4.09-.42 6.13-.5s4.1-.12 6.16-.06A47.93 47.93 0 01160.7 11.72z"/><path fill="#439916" d="M149 24.57a49.72 49.72 0 01-1.05-6.11c-.24-2-.42-4.08-.51-6.13s-.11-4.1-.06-6.15a47.81 47.81 0 01.5-6.18 47.93 47.93 0 011.06 6.11q.36 3.06.5 6.13t.06 6.15A49.65 49.65 0 01149 24.57zM123.69 16.64a36.4 36.4 0 011.09 5.3c.25 1.77.44 3.54.54 5.32s.14 3.56.1 5.35A36.29 36.29 0 01125 38a37.67 37.67 0 01-1.1-5.29c-.25-1.77-.43-3.54-.53-5.32s-.14-3.56-.1-5.35A36.54 36.54 0 01123.69 16.64z"/><path fill="#439916" d="M135,26.68a38,38,0,0,1-5.29,1.1c-1.77.25-3.55.43-5.33.54s-3.56.14-5.35.1a36.41,36.41,0,0,1-5.38-.46,35,35,0,0,1,5.29-1.1c1.77-.25,3.54-.44,5.32-.54s3.57-.14,5.36-.1A36.52,36.52,0,0,1,135,26.68Z"/><path fill="#ffedc5" d="M.19 153.43l23.26 40a36 36 0 01-4.2-2.22L0 158.16A34.12 34.12 0 01.19 153.43zM1.08 166.29l11.68 20.09A39.33 39.33 0 011.08 166.29zM1.69 145.8l29.16 50.14a31.86 31.86 0 01-3.5-1L.8 149.26A25.45 25.45 0 011.69 145.8zM4.19 139.51l33.34 57.35a21.63 21.63 0 01-3.08-.28L2.91 142.33A23.3 23.3 0 014.19 139.51zM7.3 134.3l36.3 62.44c-.93.1-1.86.15-2.82.16l-35-60.25a2.57 2.57 0 01.2-.35C6.38 135.62 6.83 135 7.3 134.3zM10.81 130l38.25 65.8c-.86.21-1.72.39-2.6.53L9.05 132A20.85 20.85 0 0110.81 130zM14.66 126.41l39.43 67.82c-.81.32-1.6.61-2.42.85l-38.94-67A20.42 20.42 0 0114.66 126.41zM19 123.32L58.92 192a20.66 20.66 0 01-2.25 1.14L16.9 124.7C17.58 124.21 18.29 123.74 19 123.32zM23.75 120.85l39.67 68.24a23.77 23.77 0 01-2.07 1.44L21.48 122A20.6 20.6 0 0123.75 120.85zM28.91 119l38.68 66.53c-.6.62-1.26 1.2-1.9 1.75L26.44 119.76C27.25 119.49 28.07 119.22 28.91 119zM34.39 117.85l36.9 63.47a24.59 24.59 0 01-1.7 2.09l-37.85-65.1A23.28 23.28 0 0134.39 117.85zM40.36 117.49L74.55 176.3c-.34.64-.68 1.24-1 1.83-.13.22-.29.46-.43.66L37.47 117.54C38.43 117.48 39.37 117.46 40.36 117.49zM46.72 118.11L77.17 170.5a26.89 26.89 0 01-1.19 3l-32.44-55.8A21.93 21.93 0 0146.72 118.11zM53.79 120.06L79 163.39a29.35 29.35 0 01-.77 3.68l-28-48.21A33.19 33.19 0 0153.79 120.06zM62.63 124.74l16.62 28.58a32.45 32.45 0 01.18 5.32L58.11 122c.84.45 1.71.93 2.53 1.45S62 124.29 62.63 124.74zM77.38 144.59l-8.13-14A39.35 39.35 0 0177.38 144.59z"/><rect width="78.73" height="55.44" x="22.13" y="86.78" fill="none" stroke="#008ef8" stroke-linecap="round" stroke-linejoin="round" transform="rotate(149.83 61.499 114.499)"/><circle cx="90.05" cy="140.12" r="35.21" fill="#c1e3f7"/><rect width="173.07" height="16.09" x="137.93" y="178.79" fill="none" stroke="#f46534" stroke-linecap="round" stroke-linejoin="round" stroke-width="2"/><path fill="#d8d8d8" d="M279.74 153.48c2-4 4-7.88 6.1-11.79s4.22-7.77 6.33-11.66 4.32-7.72 6.53-11.55l3.34-5.73c1.14-1.9 2.26-3.81 3.43-5.69-1 2-2 4-3 5.92l-3.1 5.87c-2.07 3.91-4.22 7.78-6.33 11.66s-4.32 7.72-6.53 11.55S282.06 149.71 279.74 153.48zM237.06 79.34c.67-4.37 1.45-8.73 2.24-13.08s1.67-8.69 2.5-13 1.77-8.67 2.72-13L246 33.76c.52-2.15 1-4.31 1.55-6.45-.33 2.19-.72 4.37-1.07 6.55l-1.17 6.53c-.79 4.35-1.66 8.69-2.5 13s-1.77 8.67-2.72 13S238.14 75.05 237.06 79.34zM197.87 162.88c-2.81-3.43-5.52-6.92-8.22-10.42s-5.34-7.05-8-10.58-5.25-7.12-7.82-10.72l-3.85-5.4c-1.25-1.83-2.53-3.63-3.76-5.48 1.41 1.71 2.77 3.46 4.15 5.18l4.07 5.24c2.7 3.51 5.34 7.06 8 10.58s5.25 7.12 7.82 10.72S195.4 159.21 197.87 162.88z"/><path fill="#ffcd52" d="M195.29,103.87a10.42,10.42,0,0,0,1.44-7.44c-.64-3.33-2.81-5.72-5.63-8.76-3.88-4.17-5.25-4.1-10-8.74-3.86-3.75-6-5.81-6.87-8.86-1.2-4.1-.24-6.7.83-8.33l-24.56,2.31a11,11,0,0,0-1.65,9.14c.89,3,3,5.1,6.87,8.85,4.78,4.65,6.14,4.58,10,8.75,2.82,3,5,5.42,5.64,8.76A10.34,10.34,0,0,1,169.9,107Z"/><path fill="#d8d8d8" d="M159.82 141.54c2.38 2.72 4.67 5.51 7 8.31s4.52 5.64 6.74 8.48 4.41 5.72 6.56 8.62l3.21 4.36c1 1.48 2.11 2.94 3.13 4.43-1.19-1.36-2.34-2.75-3.51-4.12l-3.44-4.19c-2.29-2.8-4.51-5.64-6.74-8.48s-4.41-5.72-6.55-8.63S161.87 144.52 159.82 141.54zM303 141.58c-1 2.35-2.18 4.65-3.33 6.94s-2.36 4.55-3.57 6.81-2.46 4.49-3.77 6.7l-1.95 3.31c-.69 1.08-1.34 2.19-2.05 3.26.51-1.18 1.08-2.33 1.62-3.5l1.71-3.44c1.14-2.29 2.35-4.55 3.56-6.81s2.47-4.49 3.78-6.7S301.55 143.74 303 141.58zM226.07 43.52c-.21 4.57-.54 9.14-.88 13.7s-.76 9.12-1.14 13.67-.87 9.11-1.37 13.66l-.76 6.82c-.3 2.27-.55 4.54-.88 6.81.1-2.29.26-4.57.39-6.86l.49-6.84c.34-4.57.76-9.12 1.14-13.68s.87-9.1 1.37-13.65S225.44 48.06 226.07 43.52z"/><line x1="154.18" x2="169.03" y1="216.09" y2="195.03" fill="none" stroke="#f46534" stroke-linecap="round" stroke-linejoin="round"/><ellipse cx="125.68" cy="292.82" fill="none" stroke="#ff5061" stroke-linecap="round" stroke-linejoin="round" rx="19.68" ry="34.1"/><path fill="#ff5061" d="M142.56,307.81c2.8-6.46.68-10.42.68-15,0-9.63-3.22-20.54-9-27.38a52.88,52.88,0,0,0-2.45,15.13C131.83,290.2,136.82,301,142.56,307.81Z"/><ellipse cx="155.96" cy="280.64" fill="#fff" rx="19.68" ry="34.1"/><path fill="#ff5061" d="M107.64,293.89c0,3.8-1.55,6.84.56,12,9-7.21,15.84-19.31,15.84-31.78a55.56,55.56,0,0,0-1.91-13C113.09,268.24,107.64,281.42,107.64,293.89Z"/><ellipse cx="100.84" cy="272.14" fill="#fff" rx="19.68" ry="34.1"/><line x1="125.68" x2="125.68" y1="326.92" y2="275.78" fill="none" stroke="#ff5061" stroke-linecap="round" stroke-linejoin="round"/><line x1="125.68" x2="117.71" y1="295.81" y2="286.7" fill="none" stroke="#ff5061" stroke-linecap="round" stroke-linejoin="round"/><line x1="125.68" x2="114.19" y1="306.69" y2="293.56" fill="none" stroke="#ff5061" stroke-linecap="round" stroke-linejoin="round"/><line x1="125.68" x2="113.82" y1="317.9" y2="304.34" fill="none" stroke="#ff5061" stroke-linecap="round" stroke-linejoin="round"/><line x1="125.68" x2="135.34" y1="295.83" y2="284.78" fill="none" stroke="#ff5061" stroke-linecap="round" stroke-linejoin="round"/><line x1="125.68" x2="137.54" y1="306.71" y2="293.15" fill="none" stroke="#ff5061" stroke-linecap="round" stroke-linejoin="round"/><line x1="125.68" x2="137.54" y1="317.92" y2="304.36" fill="none" stroke="#ff5061" stroke-linecap="round" stroke-linejoin="round"/><ellipse cx="100.84" cy="272.14" fill="none" stroke="#008ef8" stroke-miterlimit="10" rx="19.68" ry="34.1"/><polyline fill="none" stroke="#008ef8" stroke-linecap="round" stroke-linejoin="round" points="100.84 255.1 100.84 306.24 100.84 327.05"/><line x1="100.84" x2="91.19" y1="275.13" y2="264.1" fill="none" stroke="#008ef8" stroke-linecap="round" stroke-linejoin="round"/><line x1="100.84" x2="88.98" y1="286.01" y2="272.45" fill="none" stroke="#008ef8" stroke-linecap="round" stroke-linejoin="round"/><line x1="100.84" x2="88.98" y1="297.22" y2="283.66" fill="none" stroke="#008ef8" stroke-linecap="round" stroke-linejoin="round"/><line x1="100.84" x2="110.51" y1="275.15" y2="264.1" fill="none" stroke="#008ef8" stroke-linecap="round" stroke-linejoin="round"/><line x1="100.84" x2="112.7" y1="286.03" y2="272.47" fill="none" stroke="#008ef8" stroke-linecap="round" stroke-linejoin="round"/><line x1="100.84" x2="112.7" y1="297.24" y2="283.68" fill="none" stroke="#008ef8" stroke-linecap="round" stroke-linejoin="round"/><ellipse cx="155.96" cy="280.64" fill="none" stroke="#439916" stroke-linecap="round" stroke-linejoin="round" rx="19.68" ry="34.1"/><polyline fill="none" stroke="#439916" stroke-linecap="round" stroke-linejoin="round" points="155.96 263.6 155.96 314.74 155.96 327.05"/><line x1="155.96" x2="146.31" y1="283.63" y2="272.6" fill="none" stroke="#439916" stroke-linecap="round" stroke-linejoin="round"/><line x1="155.96" x2="144.1" y1="294.51" y2="280.95" fill="none" stroke="#439916" stroke-linecap="round" stroke-linejoin="round"/><line x1="155.96" x2="144.1" y1="305.72" y2="292.16" fill="none" stroke="#439916" stroke-linecap="round" stroke-linejoin="round"/><line x1="155.96" x2="165.62" y1="283.65" y2="272.6" fill="none" stroke="#439916" stroke-linecap="round" stroke-linejoin="round"/><line x1="155.96" x2="167.82" y1="294.53" y2="280.97" fill="none" stroke="#439916" stroke-linecap="round" stroke-linejoin="round"/><line x1="155.96" x2="167.82" y1="305.75" y2="292.18" fill="none" stroke="#439916" stroke-linecap="round" stroke-linejoin="round"/><line x1="31.16" x2="420.98" y1="327.05" y2="327.05" fill="none" stroke="#545454" stroke-linecap="round" stroke-linejoin="round"/></g></g></svg>